<svg width="100" height="100" viewBox="0 0 100 100" fill="none" xmlns="http://www.w3.org/2000/svg">
<rect width="100" height="100" rx="6" fill="#F8F9FA"/>
<path d="M8.00109 62.0562V35.2302C7.97495 34.2437 8.42116 33.057 9.23568 32.2398C10.0502 31.4226 11.233 30.9749 12.2163 31.0011C13.1995 30.9749 14.3823 31.4226 15.1968 32.2398C16.0114 33.057 16.4576 34.2437 16.4314 35.2302V56.1944C16.3963 56.9883 16.988 57.8768 17.7325 58.148C18.4501 58.4844 19.4946 58.2759 20.0293 57.6896L38.4566 39.2013C39.8101 37.7691 42.1139 36.7239 44.4178 36.7239C46.7216 36.7239 49.0254 37.7691 50.3789 39.2013L56.3401 45.1822C57.0538 45.8612 57.5747 47.0169 57.5747 48.1726C57.5747 49.3284 57.0538 50.4841 56.3401 51.1631C55.6633 51.8792 54.5114 52.4018 53.3595 52.4018C52.2076 52.4018 51.0557 51.8792 50.3789 51.1631L45.9081 46.6774C45.5697 46.3194 44.9937 46.0581 44.4178 46.0581C43.8418 46.0581 43.2659 46.3194 42.9275 46.6774L22.3615 67.3115C21.2394 68.4629 19.6044 69.3519 17.8671 69.6599C16.1298 69.9678 14.2902 69.6947 12.8428 68.9988C11.5959 68.4263 10.3934 67.4553 9.52304 66.2225C8.65264 64.9898 8.11429 63.4954 8.00109 62.0562Z" fill="#FF5B00"/>
<path d="M79.1196 48.6432L91.7651 61.3306C92.5377 62.0854 93.0141 63.2392 92.9997 64.321C93.0141 65.4029 92.5377 66.5568 91.7651 67.3115C91.0128 68.0867 89.8627 68.5646 88.7845 68.5502C87.7062 68.5646 86.5562 68.0867 85.8039 67.3115L74.6487 56.1193C74.3103 55.7613 73.7344 55.5 73.1584 55.5C72.5824 55.5 72.0065 55.7613 71.6681 56.1193L60.5129 67.3115C59.1594 68.7437 56.8556 69.7889 54.5517 69.7889C52.2479 69.7889 49.9441 68.7437 48.5906 67.3115L42.6294 61.3306C41.9157 60.6516 41.3948 59.4959 41.3948 58.3402C41.3948 57.1844 41.9157 56.0287 42.6294 55.3497C43.3062 54.6336 44.4581 54.111 45.61 54.111C46.7619 54.111 47.9138 54.6336 48.5906 55.3497L53.0614 59.8354C53.3998 60.1934 53.9758 60.4547 54.5517 60.4547C55.1277 60.4547 55.7036 60.1934 56.042 59.8354L67.1973 48.6432C68.5508 47.211 70.8546 46.1658 73.1584 46.1658C75.4622 46.1658 77.766 47.211 79.1196 48.6432Z" fill="#FF5B00"/>
</svg>
