<svg width="66" height="31" viewBox="0 0 66 31" fill="none" xmlns="http://www.w3.org/2000/svg">
<path d="M0.000844053 24.1142V3.28464C-0.0194517 2.51867 0.327017 1.5972 0.959471 0.962649C1.59192 0.328101 2.51036 -0.0195165 3.2738 0.000846882C4.03724 -0.0195165 4.95568 0.328101 5.58813 0.962649C6.22058 1.5972 6.56705 2.51867 6.54676 3.28464V19.5627C6.51949 20.1791 6.97893 20.869 7.55698 21.0796C8.11417 21.3408 8.92524 21.1789 9.3404 20.7237L23.6487 6.36807C24.6996 5.25603 26.4885 4.44446 28.2773 4.44446C30.0662 4.44446 31.855 5.25603 32.906 6.36807L37.5347 11.0121C38.0888 11.5393 38.4933 12.4367 38.4933 13.3341C38.4933 14.2314 38.0888 15.1288 37.5347 15.656C37.0092 16.2121 36.1147 16.6178 35.2203 16.6178C34.3259 16.6178 33.4315 16.2121 32.906 15.656L29.4345 12.1731C29.1718 11.895 28.7246 11.6922 28.2773 11.6922C27.8301 11.6922 27.3829 11.895 27.1202 12.1731L11.1513 28.1948C10.28 29.0888 9.01051 29.7791 7.66153 30.0182C6.31255 30.2574 4.88412 30.0453 3.76028 29.505C2.79209 29.0604 1.85843 28.3064 1.18259 27.3493C0.506758 26.3921 0.0887447 25.2317 0.000844053 24.1142Z" fill="#FF5B00"/>
<path d="M55.2223 13.6994L65.0411 23.5508C65.641 24.1369 66.0109 25.0328 65.9998 25.8728C66.0109 26.7128 65.641 27.6088 65.0411 28.1948C64.457 28.7967 63.564 29.1678 62.7268 29.1566C61.8896 29.1678 60.9966 28.7967 60.4125 28.1948L51.7508 19.5044C51.488 19.2264 51.0408 19.0235 50.5936 19.0235C50.1464 19.0235 49.6992 19.2264 49.4364 19.5044L40.7747 28.1948C39.7238 29.3068 37.9349 30.1184 36.1461 30.1184C34.3572 30.1184 32.5684 29.3068 31.5174 28.1948L26.8887 23.5508C26.3346 23.0236 25.9301 22.1262 25.9301 21.2288C25.9301 20.3314 26.3346 19.4341 26.8887 18.9068C27.4142 18.3508 28.3086 17.945 29.2031 17.945C30.0975 17.945 30.9919 18.3508 31.5174 18.9068L34.9889 22.3898C35.2516 22.6678 35.6988 22.8707 36.1461 22.8707C36.5933 22.8707 37.0405 22.6678 37.3032 22.3898L45.9649 13.6994C47.0159 12.5874 48.8047 11.7758 50.5936 11.7758C52.3824 11.7758 54.1713 12.5874 55.2223 13.6994Z" fill="#FF5B00"/>
</svg>
